<?xml version="1.0" encoding="UTF-8"?>
<svg id="Layer_2" data-name="Layer 2" xmlns="http://www.w3.org/2000/svg" width="296.66" height="375.95" viewBox="0 0 296.66 375.95">
  <defs>
    <style>
      .cls-1 {
        fill: #fddf00;
      }

      .cls-2 {
        fill: #fff;
      }

      .cls-3 {
        fill: #ec2024;
      }
    </style>
  </defs>
  <g id="Layer_1-2" data-name="Layer 1">
    <rect class="cls-3" x="27.3" y="15.95" width="243.34" height="342.2" rx="22.04" ry="22.04" transform="translate(37.44 -24.47) rotate(10.73)"/>
    <rect class="cls-1" y="33.75" width="243.34" height="342.2" rx="22.04" ry="22.04"/>
    <g>
      <g>
        <path d="m61.43,93.09h13.3v42.94h-13.3v-42.94Z"/>
        <path d="m78.23,93.09h40.34v10.6h-13.53v32.34h-13.27v-32.34h-13.53v-10.6Z"/>
        <path d="m130.11,93.09h13.3v42.94h-13.3v-42.94Z"/>
        <path d="m147.61,121.83l12.62-.79c.27,2.05.83,3.61,1.67,4.69,1.37,1.74,3.32,2.61,5.86,2.61,1.89,0,3.35-.44,4.38-1.33,1.03-.89,1.54-1.92,1.54-3.09s-.49-2.11-1.46-2.99-3.24-1.71-6.8-2.49c-5.82-1.31-9.97-3.05-12.45-5.21-2.5-2.17-3.75-4.93-3.75-8.29,0-2.21.64-4.29,1.92-6.25,1.28-1.96,3.2-3.5,5.77-4.63,2.57-1.12,6.09-1.68,10.56-1.68,5.49,0,9.67,1.02,12.55,3.06,2.88,2.04,4.59,5.29,5.14,9.74l-12.51.73c-.33-1.93-1.03-3.34-2.09-4.22-1.07-.88-2.53-1.32-4.41-1.32-1.54,0-2.71.33-3.49.98-.78.65-1.17,1.45-1.17,2.39,0,.68.32,1.3.97,1.85.62.57,2.11,1.09,4.45,1.58,5.8,1.25,9.96,2.51,12.46,3.79,2.51,1.28,4.34,2.87,5.48,4.76,1.14,1.89,1.71,4.01,1.71,6.36,0,2.75-.76,5.29-2.28,7.62-1.52,2.32-3.65,4.09-6.39,5.29-2.73,1.2-6.18,1.8-10.34,1.8-7.3,0-12.36-1.41-15.17-4.22s-4.4-6.39-4.77-10.72Z"/>
      </g>
      <g>
        <path class="cls-3" d="m28.02,151.58h18.54l24.19,37.84v-37.84h18.72v68.39h-18.72l-24.06-37.55v37.55h-18.67v-68.39Z"/>
        <path class="cls-3" d="m95.67,185.83c0-11.16,2.92-19.86,8.77-26.08,5.84-6.22,13.98-9.33,24.41-9.33s18.93,3.06,24.72,9.17c5.79,6.11,8.68,14.67,8.68,25.68,0,7.99-1.26,14.55-3.79,19.66s-6.18,9.1-10.96,11.94c-4.78,2.85-10.73,4.27-17.86,4.27s-13.24-1.23-17.99-3.69c-4.75-2.46-8.6-6.34-11.55-11.66-2.95-5.32-4.43-11.97-4.43-19.97Zm19.85.09c0,6.9,1.21,11.87,3.62,14.88,2.41,3.02,5.69,4.52,9.84,4.52s7.57-1.48,9.91-4.43,3.51-8.26,3.51-15.91c0-6.44-1.22-11.14-3.66-14.11-2.44-2.97-5.75-4.46-9.93-4.46s-7.22,1.51-9.64,4.52c-2.43,3.02-3.64,8.01-3.64,14.97Z"/>
        <path class="cls-3" d="m161.62,151.58h60.35v16.89h-20.25v51.5h-19.85v-51.5h-20.25v-16.89Z"/>
      </g>
      <g>
        <g>
          <path d="m81.45,233.6c-23.09,0-41.88,18.79-41.88,41.88s18.79,41.88,41.88,41.88,41.88-18.79,41.88-41.88-18.79-41.88-41.88-41.88Z"/>
          <circle class="cls-2" cx="81.45" cy="275.47" r="39.16"/>
          <path d="m81.45,236.31c-21.59,0-39.16,17.57-39.16,39.16s17.57,39.16,39.16,39.16,39.16-17.57,39.16-39.16-17.57-39.16-39.16-39.16Zm19.77,60.51c-1.75,0-3.4-.83-4.44-2.24l-4.21-5.69c-1.06-1.44-1.37-3.3-.81-5l3.06-9.41c.52-1.61,1.75-2.89,3.34-3.48l6.57-2.43c1.73-.64,3.67-.38,5.17.71l8.64,6.28c-.02,7.91-2.53,15.23-6.79,21.25h-10.53Zm9.97-43.48l-3.1,9.53c-.52,1.61-1.75,2.89-3.34,3.48l-6.95,2.58c-1.73.64-3.67.38-5.17-.71l-7.87-5.71c-1.43-1.04-2.28-2.7-2.28-4.47v-7.11c0-1.77.85-3.43,2.28-4.47l8.44-6.13c7.24,2.43,13.5,7.03,17.98,13.03Zm-41.5-13.03l8.44,6.13c1.43,1.04,2.28,2.7,2.28,4.47v7.11c0,1.77-.85,3.43-2.28,4.47l-7.96,5.78c-1.48,1.08-3.41,1.35-5.13.72l-6.63-2.4c-1.6-.58-2.85-1.87-3.37-3.49l-3.22-9.92c4.47-5.94,10.69-10.48,17.87-12.89Zm-7.81,56.45h-10.78c-4.18-5.94-6.66-13.14-6.73-20.92l8.75-6.36c1.48-1.08,3.41-1.35,5.13-.72l6.5,2.35c1.6.58,2.85,1.87,3.37,3.49l3.05,9.38c.55,1.68.25,3.53-.79,4.96l-4.04,5.54c-1.04,1.43-2.7,2.27-4.47,2.27Zm8.55,14.13l-3.28-10.1c-.55-1.68-.25-3.53.79-4.96l4.16-5.71c1.04-1.43,2.7-2.27,4.47-2.27h9.86c1.75,0,3.4.83,4.44,2.24l4.18,5.65c1.06,1.44,1.37,3.3.81,5l-3.29,10.13c-3.51,1.11-7.24,1.7-11.12,1.7s-7.54-.59-11.02-1.67Z"/>
        </g>
        <path d="m127.98,235.5h24.71v30.22l25.88-30.22h32.86l-29.18,30.18,30.49,49.78h-30.43l-16.86-32.89-12.77,13.37v19.51h-24.71v-79.96Z"/>
      </g>
    </g>
  </g>
</svg>