<svg xmlns="http://www.w3.org/2000/svg" width="150.454" height="150.454" viewBox="0 0 150.454 150.454"><path d="M298.871,426.147A75.227,75.227,0,1,0,374.1,501.374,75.311,75.311,0,0,0,298.871,426.147Z" transform="translate(-223.644 -426.147)"/><circle cx="70.348" cy="70.348" r="70.348" transform="translate(4.879 4.879)" fill="#fff"/><path d="M296.708,428.863a70.348,70.348,0,1,0,70.348,70.348A70.427,70.427,0,0,0,296.708,428.863Zm35.512,108.7a9.933,9.933,0,0,1-7.981-4.022l-7.563-10.216a9.935,9.935,0,0,1-1.464-8.979l5.492-16.9a9.94,9.94,0,0,1,6-6.244l11.811-4.374A9.929,9.929,0,0,1,347.8,488.1l15.526,11.282a66.219,66.219,0,0,1-12.19,38.178Zm17.914-78.1-5.565,17.125a9.926,9.926,0,0,1-5.995,6.242l-12.492,4.628a9.933,9.933,0,0,1-9.286-1.277l-14.131-10.266a9.93,9.93,0,0,1-4.094-8.034V455.1a9.93,9.93,0,0,1,4.094-8.034l15.167-11.019A66.891,66.891,0,0,1,350.133,459.456Zm-74.55-23.413,15.167,11.019a9.933,9.933,0,0,1,4.092,8.034v12.776a9.928,9.928,0,0,1-4.092,8.034l-14.3,10.39a9.931,9.931,0,0,1-9.219,1.3l-11.907-4.313a9.93,9.93,0,0,1-6.061-6.268L243.476,459.2A66.877,66.877,0,0,1,275.584,436.044Zm-14.026,101.4H242.2a66.226,66.226,0,0,1-12.1-37.578l15.717-11.418a9.927,9.927,0,0,1,9.219-1.3l11.675,4.231a9.927,9.927,0,0,1,6.061,6.268l5.474,16.843a9.936,9.936,0,0,1-1.416,8.914l-7.25,9.958A9.927,9.927,0,0,1,261.557,537.442Zm15.354,25.385-5.894-18.138a9.931,9.931,0,0,1,1.417-8.914l7.464-10.252a9.935,9.935,0,0,1,8.028-4.087h17.711a9.934,9.934,0,0,1,7.982,4.022l7.507,10.141a9.927,9.927,0,0,1,1.464,8.977l-5.912,18.192a66.686,66.686,0,0,1-39.767.059Z" transform="translate(-221.481 -423.984)"/></svg>