<svg xmlns="http://www.w3.org/2000/svg" width="68.75" height="68.75" viewBox="0 0 68.75 68.75"><defs><style>.a{fill:#fff;}</style></defs><path d="M258.019,426.147a34.375,34.375,0,1,0,34.375,34.375A34.413,34.413,0,0,0,258.019,426.147Z" transform="translate(-223.644 -426.147)"/><ellipse class="a" cx="29.916" cy="29.916" rx="29.916" ry="29.916" transform="translate(4.459 4.459)"/><path d="M256.276,428.863a29.916,29.916,0,1,0,29.916,29.916A29.95,29.95,0,0,0,256.276,428.863Zm15.1,46.225a4.224,4.224,0,0,1-3.394-1.71l-3.216-4.345a4.225,4.225,0,0,1-.623-3.818l2.335-7.188a4.227,4.227,0,0,1,2.55-2.655l5.023-1.86a4.223,4.223,0,0,1,3.949.544l6.6,4.8a28.16,28.16,0,0,1-5.184,16.235ZM279,441.873l-2.367,7.283a4.221,4.221,0,0,1-2.549,2.655l-5.312,1.968a4.224,4.224,0,0,1-3.949-.543l-6.009-4.366a4.223,4.223,0,0,1-1.741-3.416v-5.434a4.223,4.223,0,0,1,1.741-3.416l6.45-4.686A28.446,28.446,0,0,1,279,441.873Zm-31.7-9.957,6.45,4.686a4.224,4.224,0,0,1,1.74,3.416v5.433a4.222,4.222,0,0,1-1.74,3.416l-6.081,4.419a4.223,4.223,0,0,1-3.921.553l-5.063-1.834a4.223,4.223,0,0,1-2.578-2.665l-2.461-7.575A28.44,28.44,0,0,1,247.293,431.917Zm-5.965,43.121H233.1a28.163,28.163,0,0,1-5.144-15.98l6.684-4.856a4.221,4.221,0,0,1,3.921-.554l4.965,1.8a4.221,4.221,0,0,1,2.578,2.665l2.328,7.163a4.225,4.225,0,0,1-.6,3.791l-3.083,4.235A4.222,4.222,0,0,1,241.328,475.038Zm6.529,10.8-2.507-7.714a4.223,4.223,0,0,1,.6-3.791l3.174-4.36a4.225,4.225,0,0,1,3.414-1.738h7.532a4.224,4.224,0,0,1,3.394,1.711l3.193,4.312a4.222,4.222,0,0,1,.623,3.818l-2.514,7.736a28.359,28.359,0,0,1-16.911.025Z" transform="translate(-221.901 -424.404)"/></svg>