<svg xmlns="http://www.w3.org/2000/svg" width="123.5" height="123.5" viewBox="0 0 137.5 137.5"><path d="M292.394,426.147a68.75,68.75,0,1,0,68.75,68.75A68.827,68.827,0,0,0,292.394,426.147Z" transform="translate(-223.644 -426.147)"/><circle cx="64.291" cy="64.291" r="64.291" transform="translate(4.459 4.459)" fill="#fff"/><path d="M290.651,428.863a64.291,64.291,0,1,0,64.291,64.291A64.364,64.364,0,0,0,290.651,428.863ZM323.1,528.2a9.078,9.078,0,0,1-7.294-3.676L308.9,515.19a9.079,9.079,0,0,1-1.338-8.206l5.019-15.447a9.084,9.084,0,0,1,5.48-5.707l10.794-4A9.074,9.074,0,0,1,337.341,483l14.19,10.31A60.517,60.517,0,0,1,340.389,528.2Zm16.372-71.38-5.086,15.651a9.072,9.072,0,0,1-5.478,5.7L317.5,482.407a9.078,9.078,0,0,1-8.486-1.167l-12.914-9.383a9.075,9.075,0,0,1-3.741-7.342V452.838a9.075,9.075,0,0,1,3.741-7.342l13.861-10.07A61.132,61.132,0,0,1,339.477,456.822Zm-68.131-21.4,13.861,10.07a9.078,9.078,0,0,1,3.74,7.342v11.676a9.073,9.073,0,0,1-3.74,7.342l-13.068,9.5a9.076,9.076,0,0,1-8.425,1.189L252.832,478.6a9.075,9.075,0,0,1-5.539-5.728L242,456.591A61.119,61.119,0,0,1,271.346,435.425Zm-12.819,92.669H240.835a60.523,60.523,0,0,1-11.054-34.342l14.364-10.435a9.072,9.072,0,0,1,8.425-1.19l10.67,3.866a9.072,9.072,0,0,1,5.539,5.728l5,15.393a9.08,9.08,0,0,1-1.294,8.146l-6.626,9.1A9.073,9.073,0,0,1,258.527,528.094Zm14.032,23.2-5.387-16.577a9.076,9.076,0,0,1,1.3-8.146l6.821-9.369a9.08,9.08,0,0,1,7.337-3.735h16.186a9.078,9.078,0,0,1,7.294,3.676l6.861,9.268a9.073,9.073,0,0,1,1.338,8.2l-5.4,16.626a60.944,60.944,0,0,1-36.343.054Z" transform="translate(-221.901 -424.404)"/></svg>